<?xml version="1.0" standalone="no"?>
<!DOCTYPE svg PUBLIC "-//W3C//DTD SVG 20010904//EN"
 "http://www.w3.org/TR/2001/REC-SVG-20010904/DTD/svg10.dtd">
<svg version="1.0" xmlns="http://www.w3.org/2000/svg"
 width="200.000000pt" height="200.000000pt" viewBox="0 0 200.000000 200.000000"
 preserveAspectRatio="xMidYMid meet">
<metadata>
Created by potrace 1.10, written by Peter Selinger 2001-2011
</metadata>
<g transform="translate(0.000000,200.000000) scale(0.050000,-0.050000)"
fill="	#FFFFFF" stroke="none">
<path d="M1740 3437 c-1061 -79 -1685 -1281 -1141 -2197 601 -1012 2124 -960
2642 90 522 1057 -291 2197 -1501 2107z m520 -111 c938 -228 1365 -1356 809
-2137 -796 -1121 -2579 -573 -2577 791 2 923 851 1569 1768 1346z"/>
<path d="M1675 3117 c-190 -324 -117 -618 207 -838 355 -242 365 -718 16 -822
-222 -67 -468 237 -288 355 82 54 201 0 197 -89 -3 -57 2 -63 40 -51 209 63
124 284 -170 438 -153 81 -232 165 -279 301 l-32 91 -70 -78 c-221 -245 -228
-767 -15 -1035 187 -236 503 -316 818 -210 670 228 702 951 61 1381 -257 173
-398 358 -419 550 l-11 100 -55 -93z"/>
<path d="M2042 3140 c-2 -155 103 -297 388 -527 174 -140 295 -292 316 -400 5
-24 6 0 2 54 -15 215 -142 404 -400 595 -178 131 -248 205 -287 301 -17 43
-19 41 -19 -23z"/>
<path d="M2966 1959 c-2 -896 -936 -1393 -1816 -966 l-100 49 80 -72 c833
-744 2343 99 1894 1057 l-58 123 0 -191z"/>
</g>
</svg>
